<svg width="634" height="690" viewBox="0 0 634 690" fill="none" xmlns="http://www.w3.org/2000/svg">
<path d="M631.688 209.917C630.555 203.966 626.387 201.22 623.996 200.125C622.014 199.204 616.823 197.442 611.192 200.601H611.176C611.176 200.601 611.113 200.633 611.082 200.664C611.05 200.696 611.019 200.712 610.987 200.728L513.353 257.595L463.018 286.91L388.381 330.398C388.381 330.398 388.365 330.398 388.365 330.414L387.799 330.747C381.979 334.493 381.318 340.365 381.318 342.762C381.303 345.682 382.121 350.983 387.579 354.411C387.689 354.507 387.831 354.586 387.956 354.649C387.972 354.649 387.972 354.681 387.988 354.681L388.35 354.887L388.475 354.951L460.156 396.709L504.812 422.722L612.419 485.414L612.922 485.7C617.688 488.462 621.998 487.24 624.153 486.272C626.324 485.287 630.162 482.812 631.31 477.288L631.405 476.812C632.05 473.606 632.584 470.305 632.993 467.004L633.025 466.654C633.103 466.178 633.151 465.702 633.198 465.226V464.988C633.324 464.036 633.434 463.067 633.497 462.099L633.528 461.814C633.56 461.48 633.591 461.163 633.607 460.83L633.67 459.925C633.717 459.338 633.748 458.734 633.78 458.147L633.733 457.941L633.921 454.592L633.984 452.434C634 451.783 634 451.132 634 450.497V234.788C634 226.455 633.229 218.075 631.688 209.917Z" fill="#8C87EE"/>
<path d="M349.057 286.417C351.196 287.655 356.843 290.131 363.198 286.417H363.213L463.018 228.279L513.353 198.949L585.82 156.731C591.247 153.572 592.473 148.557 592.725 145.859C592.93 143.653 592.835 138.145 587.959 133.781C587.88 133.717 587.802 133.638 587.723 133.574C587.267 133.178 586.811 132.797 586.355 132.416C585.678 131.844 584.986 131.289 584.294 130.733C583.602 130.162 582.894 129.606 582.186 129.067C581.478 128.511 580.755 127.972 580.031 127.448C579.308 126.908 578.584 126.385 577.861 125.877C577.121 125.337 576.382 124.829 575.643 124.337C573.425 122.829 571.144 121.385 568.832 120.02L567.967 119.496L513.353 87.6899L463.018 58.3753L382.325 11.3798C381.381 10.8402 380.422 10.3006 379.478 9.77683C378.503 9.25307 377.543 8.74518 376.568 8.25316C375.656 7.77702 374.743 7.31675 373.831 6.88822C371.047 5.53914 368.215 4.30116 365.353 3.15842C364.519 2.82512 363.685 2.49182 362.836 2.19026C362.097 1.90457 361.357 1.63476 360.618 1.38081C359.957 1.14274 359.281 0.904674 358.605 0.682473C358.573 0.666602 358.526 0.650737 358.495 0.650737C357.095 0.174593 355.773 0 354.562 0C351.259 0 348.742 1.38081 347.342 2.41246C345.407 3.80915 342.167 6.99932 342.167 12.5861V274.577C342.214 281.433 346.509 284.941 349.057 286.417Z" fill="#8C87EE"/>
<path d="M413.706 627.655L317.063 571.343L266.712 542.013L192.169 498.588C148.126 472.924 120.757 425.103 120.757 373.791V113.657C120.757 101.182 107.528 93.2783 96.6746 99.2618C61.4401 118.72 0 162.954 0 234.788V450.498C0 497.874 25.2619 542.028 65.9231 565.709C65.9231 565.709 210.809 650.24 246.767 671.063C276.654 688.379 311.18 694.252 344.92 686.887C370.025 681.412 392.141 669.032 413.895 655.954C424.56 649.542 424.434 633.924 413.691 627.655H413.706Z" fill="#8C87EE"/>
<path d="M582.912 526.949C560.969 514.204 539.089 501.348 517.162 488.587C481.786 467.986 446.583 447.036 410.924 426.942C379.716 409.357 346.385 393.136 323.514 364.456C283.545 314.35 291.834 250.452 291.834 190.299V19.0296C291.834 7.30056 280.005 -0.635176 269.278 3.88819C243.214 14.903 209.772 34.4408 189.418 46.8681C178.046 53.8199 171.093 66.2472 171.093 79.6586V373.789C171.093 407.008 188.82 437.973 217.338 454.59L317.065 512.68L367.4 542.011L469.092 601.259C480.842 608.099 495.329 608.099 507.079 601.259L568.094 565.707C574.04 562.247 579.703 558.311 585.02 553.978C593.938 546.708 592.869 532.71 582.928 526.933L582.912 526.949Z" fill="#8C87EE"/>
</svg>
